{"title":"Teen Wolf S04E08 Time of Death 1080P WEB-DL","uid":10748955,"size":1550309852,"categoryP":"video","categoryS":"hd___tv_shows","magnet":"?xt=urn:btih:63fc6cfeddbae503860f4991e185dc0d5745bab6&amp;dn=Teen+Wolf+S04E08+Time+of+Death+1080P+WEB-DL&amp;tr=udp%3A%2F%2Ftracker.openbittorrent.com%3A80&amp;tr=udp%3A%2F%2Fopen.demonii.com%3A1337&amp;tr=udp%3A%2F%2Ftracker.coppersurfer.tk%3A6969&amp;tr=udp%3A%2F%2Fexodus.desync.com%3A6969","seeders":2,"leechers":1,"uploader":"jmanwf","files":2,"time":1407854975,"description":"Description\nScott embarks on a dangerous plan to draw out The Benefactor; Malia confronts her past\n\n\nEpisode Info\n\nEpisode number: 4x8\nAirdate: Monday August 11th, 2014\n\n\n\nFormat : MPEG-4\nFormat profile : Base Media / Version 2\nCodec ID : mp42\nFile size : 1.44 GiB\nDuration : 41mn 55s\nOverall bit rate mode : Variable\nOverall bit rate : 4 929 Kbps\nMovie name : Time of Death\nAlbum : Teen Wolf, Season 4\nPart/Position : 1\nPart/Total : 1\nTrack name/Position : 8\nTrack name/Total : 10\nPerformer : Teen Wolf\nGenre : Sci-Fi &amp; Fantasy\nRecorded date : UTC 2014-08-11 07:00:00\nEncoded date : UTC 2014-08-12 08:56:04\nTagged date : UTC 2014-08-12 09:01:07\n\nVideo\nID : 2\nFormat : AVC\nFormat/Info : Advanced Video Codec\nFormat profile : &lt;a class=&quot;__cf_email__&quot; href=&quot;/cdn-cgi/l/email-protection&quot; data-cfemail=&quot;c48cada3ac8488f0eaf4&quot;&gt;[email&amp;#160;protected]&lt;/a&gt;&lt;script cf-hash='f9e31' type=&quot;text/javascript&quot;&gt;\n/* &lt;![CDATA[ */!function(){try{var t=&quot;currentScript&quot;in document?document.currentScript:function(){for(var t=document.getElementsByTagName(&quot;script&quot;),e=t.length;e--;)if(t[e].getAttribute(&quot;cf-hash&quot;))return t[e]}();if(t&amp;&amp;t.previousSibling){var e,r,n,i,c=t.previousSibling,a=c.getAttribute(&quot;data-cfemail&quot;);if(a){for(e=&quot;&quot;,r=parseInt(a.substr(0,2),16),n=2;a.length-n;n+=2)i=parseInt(a.substr(n,2),16)^r,e+=String.fromCharCode(i);e=document.createTextNode(e),c.parentNode.replaceChild(e,c)}}}catch(u){}}();/* ]]&gt; */&lt;/script&gt;\nFormat settings, CABAC : Yes\nFormat settings, ReFrames : 4 frames\nCodec ID : avc1\nCodec ID/Info : Advanced Video Coding\nDuration : 41mn 55s\nBit rate : 4 799 Kbps\nWidth : 1 920 pixels\nHeight : 1 080 pixels\nDisplay aspect ratio : 16:9\nFrame rate : 23.976 fps\nColor space : YUV\nChroma subsampling : 4:2:0\nBit depth : 8 bits\nScan type : Progressive\nBits/(Pixel*Frame) : 0.097\nStream size : 1.41 GiB (97%)\nLanguage : English\nEncoded date : UTC 2014-08-12 08:59:39\nTagged date : UTC 2014-08-12 09:01:03\nColor primaries : BT.709\nTransfer characteristics : BT.709\nMatrix coefficients : BT.709\n\nAudio\nID : 1\nFormat : AAC\nFormat/Info : Advanced Audio Codec\nFormat profile : LC\nCodec ID : 40\nDuration : 41mn 55s\nBit rate mode : Variable\nBit rate : 126 Kbps\nMaximum bit rate : 203 Kbps\nChannel(s) : 2 channels\nChannel positions : Front: L R\nSampling rate : 48.0 KHz\nCompression mode : Lossy\nStream size : 37.9 MiB (3%)\nLanguage : English\nEncoded date : UTC 2014-08-12 08:56:19\nTagged date : UTC 2014-08-12 08:59:38\n\n","torrent":{"xt":"urn:btih:63fc6cfeddbae503860f4991e185dc0d5745bab6","amp;dn":"Teen+Wolf+S04E08+Time+of+Death+1080P+WEB-DL","amp;tr":["udp%3A%2F%2Ftracker.openbittorrent.com%3A80","udp%3A%2F%2Fopen.demonii.com%3A1337","udp%3A%2F%2Ftracker.coppersurfer.tk%3A6969","udp%3A%2F%2Fexodus.desync.com%3A6969"],"infoHash":"63fc6cfeddbae503860f4991e185dc0d5745bab6","infoHashBuffer":{"type":"Buffer","data":[99,252,108,254,221,186,229,3,134,15,73,145,225,133,220,13,87,69,186,182]},"announce":[],"urlList":[]}}